<svg xmlns="http://www.w3.org/2000/svg" viewBox="0 0 300 200">
  <defs><linearGradient id="g2" x1="0" y1="0" x2="0" y2="1">
    <stop offset="0" stop-color="#e2f0ff"/><stop offset="1" stop-color="#d1e6ff"/></linearGradient></defs>
  <rect width="300" height="200" fill="url(#g2)"/>
  <rect x="34" y="58" width="232" height="82" rx="14" fill="#1f6fd6"/>
  <rect x="46" y="68" width="204" height="30" rx="5" fill="#fff" opacity=".92"/>
  <rect x="52" y="73" width="26" height="20" rx="3" fill="#bcdcff"/>
  <rect x="84" y="73" width="26" height="20" rx="3" fill="#bcdcff"/>
  <rect x="116" y="73" width="26" height="20" rx="3" fill="#bcdcff"/>
  <rect x="148" y="73" width="26" height="20" rx="3" fill="#bcdcff"/>
  <rect x="180" y="73" width="26" height="20" rx="3" fill="#bcdcff"/>
  <rect x="212" y="73" width="30" height="20" rx="3" fill="#0f1e3d"/>
  <rect x="46" y="108" width="216" height="12" rx="4" fill="#1657a8"/>
  <circle cx="92" cy="142" r="17" fill="#1a1a2e"/><circle cx="92" cy="142" r="7" fill="#8a8fa3"/>
  <circle cx="214" cy="142" r="17" fill="#1a1a2e"/><circle cx="214" cy="142" r="7" fill="#8a8fa3"/>
  <text x="150" y="178" font-family="Poppins,sans-serif" font-size="12" font-weight="700" fill="#1657a8" text-anchor="middle">SEATER / SLEEPER</text>
</svg>
